<svg width="464" height="464" viewBox="0 0 464 464" fill="none" xmlns="http://www.w3.org/2000/svg">
<circle cx="232" cy="232" r="232" fill="#212121"/>
<path fill-rule="evenodd" clip-rule="evenodd" d="M303.5 452.773C396.642 422.63 464 335.181 464 232C464 128.819 396.642 41.3702 303.5 11.2268C210.358 41.3702 143 128.819 143 232C143 335.181 210.358 422.63 303.5 452.773Z" fill="#303030"/>
<path d="M68.8 307V293.6H103.6V180.8H68.8V167.4H155.2V180.8H120.4V293.6H155.2V307H68.8ZM206.722 307H189.922V167.4H240.722C253.655 167.4 263.522 170.933 270.322 178C277.122 185.067 280.522 194.933 280.522 207.6C280.522 218.933 277.589 228 271.722 234.8C265.855 241.6 257.322 245.533 246.122 246.6L281.722 307H262.922L228.922 247.4H206.722V307ZM240.322 233.2C247.389 233.2 252.855 231.467 256.722 228C260.722 224.4 262.722 219.333 262.722 212.8V202.4C262.722 195.867 260.722 190.867 256.722 187.4C252.855 183.8 247.389 182 240.322 182H206.722V233.2H240.322ZM351.844 309.4C343.31 309.4 335.977 307.8 329.844 304.6C323.71 301.267 318.644 296.533 314.644 290.4C310.644 284.267 307.71 276.733 305.844 267.8C303.977 258.867 303.044 248.667 303.044 237.2C303.044 225.867 303.977 215.733 305.844 206.8C307.71 197.733 310.644 190.133 314.644 184C318.644 177.867 323.71 173.2 329.844 170C335.977 166.667 343.31 165 351.844 165C360.377 165 367.71 166.667 373.844 170C379.977 173.2 385.044 177.867 389.044 184C393.044 190.133 395.977 197.733 397.844 206.8C399.71 215.733 400.644 225.867 400.644 237.2C400.644 248.667 399.71 258.867 397.844 267.8C395.977 276.733 393.044 284.267 389.044 290.4C385.044 296.533 379.977 301.267 373.844 304.6C367.71 307.8 360.377 309.4 351.844 309.4ZM351.844 294.8C357.444 294.8 362.177 293.733 366.044 291.6C369.91 289.333 373.11 286.2 375.644 282.2C378.177 278.2 379.977 273.4 381.044 267.8C382.244 262.067 382.844 255.667 382.844 248.6V225.8C382.844 218.867 382.244 212.533 381.044 206.8C379.977 201.067 378.177 196.2 375.644 192.2C373.11 188.2 369.91 185.133 366.044 183C362.177 180.733 357.444 179.6 351.844 179.6C346.244 179.6 341.51 180.733 337.644 183C333.777 185.133 330.577 188.2 328.044 192.2C325.51 196.2 323.644 201.067 322.444 206.8C321.377 212.533 320.844 218.867 320.844 225.8V248.6C320.844 255.667 321.377 262.067 322.444 267.8C323.644 273.4 325.51 278.2 328.044 282.2C330.577 286.2 333.777 289.333 337.644 291.6C341.51 293.733 346.244 294.8 351.844 294.8Z" fill="#F2F2F2"/>
</svg>
