<svg width="40" height="40" viewBox="0 0 40 40" fill="none" xmlns="http://www.w3.org/2000/svg">
<path fill-rule="evenodd" clip-rule="evenodd" d="M24.0893 4.73837L20 0L15.9107 4.73837L10 2.67949L8.82771 8.82771L2.67949 10L4.73837 15.9107L0 20L4.73837 24.0893L2.67949 30L8.82771 31.1723L10 37.3205L15.9107 35.2616L20 40L24.0893 35.2616L30 37.3205L31.1723 31.1723L37.3205 30L35.2616 24.0893L40 20L35.2616 15.9107L37.3205 10L31.1723 8.82771L30 2.67949L24.0893 4.73837ZM20 30C25.5228 30 30 25.5228 30 20C30 14.4772 25.5228 10 20 10C14.4772 10 10 14.4772 10 20C10 25.5228 14.4772 30 20 30Z" fill="#212121"/>
<circle cx="20" cy="20" r="8" fill="#212121"/>
</svg>
