<svg width="24" height="24" viewBox="0 0 24 24" fill="none" xmlns="http://www.w3.org/2000/svg">
<path d="M10 9C10 7.89543 10.8954 7 12 7H18C19.1046 7 20 7.89543 20 9V19C20 20.1046 19.1046 21 18 21H12C10.8954 21 10 20.1046 10 19V9Z" fill="#F0F3FF"/>
<path fill-rule="evenodd" clip-rule="evenodd" d="M7 2C5.89539 2 5 2.89542 5 4V14C5 15.1046 5.89539 16 7 16H8V9C8 6.79086 9.79089 5 12 5H15V4C15 2.89542 14.1046 2 13 2H7ZM15 7H12C10.8954 7 10 7.89542 10 9V16H13C14.1046 16 15 15.1046 15 14V7Z" fill="#F0F3FF"/>
</svg>
